<svg xmlns="http://www.w3.org/2000/svg" viewBox="0 0 1024 1024"><title>eepview clove mark</title><defs><linearGradient id="a" x1="0" x2="0" y1="0" y2="1"><stop offset="0" stop-color="#2A6A56"/><stop offset="1" stop-color="#0F3529"/></linearGradient></defs><rect width="824" height="824" x="100" y="100" fill="url(#a)" stroke="#FFF" stroke-opacity=".12" stroke-width="4" rx="185"/><path fill="#CFAF7D" d="M654.13 448.39c.24 1.12.44 2.27.69 3.4.6 3.09 1.22 6.1 1.8 9.13.52 2.57 1.03 5.1 1.5 7.7 3.37 16.93 6.77 33.92 10.08 50.89 1.85 9.25 3.65 18.52 5.5 27.77.67 3.2 1.3 6.35 1.95 9.55.41 2.08.8 4.1 1.26 6.15a426 426 0 0 0 2.2 11.09c2.2 10.94 2.2 10.94.65 16.01-2.4 1.27-3.95 1.48-6.65 1.38-2.4-.05-2.4-.05-5.65 1.68 1.73 3.26 1.73 3.26 3.78 3.98 2.95.3 5.72.02 8.69-.17 1.95 1.05 1.95 1.05 3.04 2.98 1.48 6.18-2 12.34-4.44 17.96-.57 1.28-1.06 2.58-1.6 3.91a79 79 0 0 1-4.54 9.16c-3.57 6.64-3.57 6.64-3.73 10.27a73 73 0 0 0 2.92 6.8c.36 5.52-2.9 11.3-4.98 16.3-.28.64-.6 1.36-.85 2.05q-1.09 2.49-2.22 4.87c-1.04 3.55-1.07 6.5-.98 10.2.02 2 .02 2-.74 4.5-2.71 1.45-2.71 1.45-4.32 1.05-2.85-1.7-5.29-3.67-7.9-5.7-1.95-1.04-1.95-1.04-4.43-.35-2.9 1.48-4.52 2.9-6.69 5.37q-1.08 1.11-2.11 2.3-.95 1.01-1.93 2.14c-.97.93-1.9 1.92-2.87 2.85a53 53 0 0 0-5.17 6.65c-4.7 6.74-10.62 10.52-18.22 13.52-2.28 1.21-3.16 2.17-4.4 4.43a66 66 0 0 0-1.88 9.56c-.6 3.17-1.18 4.32-3.5 6.52-1.05.63-2.08 1.32-3.19 1.98-3.65 2.43-4.74 4.05-5.67 8.3-.12.83-.2 1.72-.32 2.54a31 31 0 0 1-2.63 9.47c-2.1 1.54-3.25 2.01-5.83 2-2.38-.42-2.38-.42-5.34-1.28-7.74-1.45-15.15 1.1-22.57 3.51-13.86 4.45-29.8 5.75-43.43-.1a18 18 0 0 1-5.17-4.62c-2.72-3.01-4.52-3.52-8.52-4.1-8.92-1.46-15.49-10.15-20.88-16.89-6.42-8-12.82-14.55-22.36-18.6-3.39-.36-5.33 1.23-8.17 2.95-1.3 1.1-2.5 2.23-3.77 3.4-1.03.27-1.99.57-3 .9q.4-2.41.98-4.7l1.09-.58c-.36-3.3-.36-3.3-2.09-6.55-2.64-1.17-2.64-1.17-6.1-2.32-11.5-3.92-11.5-3.92-14.37-7.9l-.74-2.17c2.24-3.77 4.64-4.77 8.65-6 3.2-.51 6.22-.73 9.52-.67 2.83-.18 3.94-.84 6.07-2.74-.24-.57-.44-1.23-.68-1.8l-.8-2.29-.93-2.15c-.55-1.94-.55-1.94.76-4.72 3.32-1.48 5.8-1.13 9.25-.53 5.11.97 10.2.84 14.7-1.97.42-.36.83-.79 1.26-1.15-.33-1.92-.33-1.92-1.85-3.34-4.73-2.22-9.87-2.2-15.02-2.6-5.87-.42-11.25-1.11-16.86-3.28-5.38-2.01-10.51-2.63-16.21-2.87-9.97-.41-18.59-3.27-25.54-10.85-1.79-2.05-3.43-4.1-5.16-6.17l-1.85-2.3a218 218 0 0 1-12.99-17.87q-1.49-2.24-3.05-4.44a105 105 0 0 1-16.17-34.98l-.55-2.22c-.7-2.48-1.3-4.94-1.91-7.4l-.61-2.32c-2.52-10.64-3.54-21.58-4.47-32.5-.19-1.92-.35-3.79-.53-5.71-1.48-16.27-.9-31.68 1.22-47.85.25-2.15.53-4.25.77-6.4q.98-7.83 2.28-15.62c.26-1.74.57-3.5.83-5.25 3.9-26.44 18.27-49.95 35.25-70.26a242 242 0 0 0 8.72-11.1 328 328 0 0 1 25.76-29.72c.67-.7 1.34-1.4 2.04-2.2 10.5-10.74 24.78-22.78 40.32-23.94 4.37.11 8.23 1.47 12.36 2.83 4.4 1.34 9.27 2.51 13.66.8 2.16-1.42 2.16-1.42 2.77-3.55.37-2.7.36-5.21.16-7.95q-.47-7.36-.32-14.74c-.37-2.93-1.23-4.28-3.16-6.46a49 49 0 0 0-9.03-3.76c-4.74-1.73-9.25-4.83-11.94-9.1-.85-2-.85-2-.08-4.49 1.75-2.46 4.84-3.2 7.6-4.04 3.7-1.69 5.31-2.83 6.98-6.5.45-1.77.8-3.48 1.16-5.28 2.41-11.44 2.41-11.44 6.48-15.84 3.1-1.23 5.54-.58 8.88-.2 9.46-.78 19.82-4.34 27.53-9.76q.52.55 1.15 1.13c.48.51 1.02 1 1.5 1.5.48.51.98.94 1.5 1.5 1.48 1.23 1.48 1.23 3.97 2 2.68-.87 4.83-1.8 7.12-3.51 1.57-1.11 1.57-1.11 3.77-.9 1.79 3.24.91 6.56.53 10.17.34 3.51 1.63 6.59 2.94 9.85 4.1 10.84 4.33 21.1 4.42 32.53.16 4.1 2.1 7.24 3.9 10.88.86 2.26.86 2.26.1 4.75q-.72 1.22-1.54 2.49c-1.36 2.53-1.36 2.53-1.3 5.28 1.8 3.92 3.53 6.9 7.12 9.45 2.4.74 4.58.76 7.14.87 4.78.73 6.84 2.9 10.09 6.4 6.72 9.23 10.57 20.27 10.04 31.84.17 2.41.83 3.8 2.18 5.8a33 33 0 0 0 6.88 3.79c10.2 5.16 17.33 16.48 23.53 25.78 3.64 4.75 7.5 7.3 12.97 9.6 18.35 8.07 20.98 22.82 24.54 40.91"/><path fill="#F1E6CD" d="M654.13 448.39c.24 1.12.44 2.27.69 3.4.6 3.09 1.22 6.1 1.8 9.13.52 2.57 1.03 5.1 1.5 7.7 3.37 16.93 6.77 33.92 10.08 50.89 1.85 9.25 3.65 18.52 5.5 27.77.67 3.2 1.3 6.35 1.95 9.55.41 2.08.8 4.1 1.26 6.15a426 426 0 0 0 2.2 11.09c2.2 10.94 2.2 10.94.65 16.01-2.4 1.27-3.95 1.48-6.65 1.38-2.4-.05-2.4-.05-5.65 1.68 1.73 3.26 1.73 3.26 3.78 3.98 2.95.3 5.72.02 8.69-.17 1.95 1.05 1.95 1.05 3.04 2.98 1.48 6.18-2 12.34-4.44 17.96-.57 1.28-1.06 2.58-1.6 3.91a79 79 0 0 1-4.54 9.16c-3.57 6.64-3.57 6.64-3.73 10.27a73 73 0 0 0 2.92 6.8c.36 5.52-2.9 11.3-4.98 16.3-.28.64-.6 1.36-.85 2.05q-1.09 2.49-2.22 4.87c-1.04 3.55-1.07 6.5-.98 10.2.02 2 .02 2-.74 4.5-2.71 1.45-2.71 1.45-4.32 1.05-2.85-1.7-5.29-3.67-7.9-5.7-1.95-1.04-1.95-1.04-4.43-.35-2.9 1.48-4.52 2.9-6.69 5.37q-1.08 1.11-2.11 2.3-.95 1.01-1.93 2.14c-.97.93-1.9 1.92-2.87 2.85a53 53 0 0 0-5.17 6.65c-4.7 6.74-10.62 10.52-18.2 13.57-2.03 1.02-2.03 1.02-3.47 2.62q-.64.57-1.24 1.21c-3.24-.99-3.24-.99-6.1-2.32l-2.94 3.65c-.67-.34-1.28-.71-1.95-1.05 1.12-2.34 2.05-3.88 3.98-5.6.22-2.2.22-2.2-1.76-4.63q-.98.12-1.92.32a249 249 0 0 1-5.31-3.44l-2.5-.76c-1.78-2.19-1.78-2.19-3.13-4.6 1.33-2.87 1.97-3.49 4.46-5.23a30 30 0 0 0 7.6-7.45c.4-2.65.44-4.27-.18-6.87-.8.08-.8.08-4.66.4-.13-.63-.2-1.3-.33-1.92q1.09.07 2.2.22c.6-.6 1.22-1.13 1.9-1.7q-1.01-.31-1.98-.55c-3.27-1.05-3.94-1.4-5.58-4.48.76-2.5.76-2.5 2.61-5.57l1.6-3.01c2.6-4.8 2.6-4.8 5.86-6.53.05-.3.18-.58.26-.83a91 91 0 0 0-2.57-3.5l-1.6-2.22a47 47 0 0 0-1.73-2.35l-1.68-2.38c-1.98-2.15-3.59-2.69-6.26-3.78-.65-2.01-1.22-4-1.8-6-3.03-.47-3.03-.47-6.29 1.26-1.07 3.49-1.09 3.71.2 6.78 1.2 3.33 1.2 3.33.56 5.9-.4.7-.8 1.4-1.21 2.18-.3.5-.3.5-1.7 3.2q-.7 1.31-1.46 2.65c1.7 1.88 1.7 1.88 3.36 2.4l1.45 2.7-.77 2.5c-3.3 1.76-6.2 1.56-9.87 1.07-2.72-.92-4.76-2.27-6.97-3.95q-.92.79-1.88 1.7.07 1.13.2 2.33c0 .41 0 .41.19 2.33l-2.17 1.16c-2.2-.72-3.75-3.65-5.03-5.4-.93-1.88-.93-1.88-.01-4.87q.79-1.26 1.7-2.57c1.7-4.39.72-7.14-.57-11.54-2.05-.44-2.05-.44-4.41-.44-3.58-.18-3.58-.18-5-1.52.01-.9-.07-1.84-.06-2.75-.45-.46-.96-.88-1.41-1.34a19 19 0 0 1 2.03-6.65 79 79 0 0 1 5.64-3.41c1.67-1.17 1.67-1.17 2.44-3.67-2.42-2.05-3.2-2.47-6.08-3.17-6.67-1.95-10.06-5.44-13.43-11.38-.98-1.7-.98-1.7-2.38-3.05-1.33-3.68-2.11-6.19-1.9-10.12L524 597c.8-.21 1.59-.43 2.46-.61.34.24.76.5 1.12.8 3.64-2.08 4.4-4.3 5.6-8.2l1.07-3.22c.94-3.21 1.93-6.46 2.87-9.67.62-1.72.62-1.72 2.2-4.1 3.85-7.96.7-22.92-1.14-31.34-.6-3.37-.57-6.31-.35-9.7.23-6.25-.76-11.64-2.23-17.68-.66-3.2-.5-5.66-.11-8.86.54-6.97-1.32-14.26-2.48-21.16-.36-2.25-.58-4.5-.78-6.83-.38-5.3-1.2-10.5-2.02-15.7-.13-1.05-.32-2.06-.49-3.16l-.46-3.1-.46-2.81c-.52-2.44-.52-2.44-2.26-5.7-.33-.23-.33-.23-2.09-1.18-2.77-1.94-3.3-3.46-4.15-6.63-.1-4.12 1.45-8.01 2.73-11.9.52.07.52.07 3.03.48 1.78 2.81 3 5.78 4.08 8.97l2.17-1.15a43 43 0 0 0-1.6-6.95c-.85-2.9-.85-2.9-.92-5.64-1.98-2.42-1.98-2.42-4.08-2.7l-2.31-.16c-.64-.29-1.23-.6-1.87-.9-2.2-.84-3.37-.57-5.58-.02q-.98.12-1.92.33c-.9-3-.9-3-.14-5.5l1.63-.87c.25-1.1.58-2.18.83-3.29 1.2-3.36 1.2-3.36 3.38-4.51q.94-.2 1.91-.32c-.04-.47 0-.91-.03-1.38-.62-.5-1.27-1.07-1.88-1.57-2.23-2.1-2.83-3.1-3.54-6 .25-2.14.25-2.14.8-4.25.72-3.23.93-5.71.52-8.98q.07-1.08.22-2.2c-.11-3.49-1.09-6.1-2.32-9.35-1.93-5.45-2.89-9.88-1.88-15.57.15-.91.26-1.74.4-2.65.63-3.4 1.21-6.77 1.92-10.14.64-3.26.78-6.26.59-9.64.11-4.1 1.03-8.14 1.73-12.2.47-2.9.47-2.9.12-6.19-.33.04-.33.04-1.92.33-1.06 1.81-1.06 1.81-2.07 4.1-2.13 4.88-3.78 6.1-8.33 9.08l-1.96 1.67c-3.66 2.02-7.1.92-11-.13q-3-.9-6.02-1.89a43 43 0 0 1 .35-2.62c.48-4.99.19-9.99.04-14.99-.04-.46-.04-.46-.05-2.83q-.06-1.32-.04-2.7c-.07-.79-.06-1.56-.08-2.38-.43-2.77-1.4-4.2-3.22-6.3a49 49 0 0 0-9.03-3.76c-4.74-1.73-9.25-4.83-11.94-9.1-.85-2-.85-2-.08-4.49 1.75-2.46 4.84-3.2 7.6-4.04 3.7-1.69 5.31-2.83 6.98-6.5.45-1.77.8-3.48 1.16-5.28 2.41-11.44 2.41-11.44 6.48-15.84 3.1-1.23 5.54-.58 8.88-.2 9.46-.78 19.82-4.34 27.53-9.76.34.38.73.73 1.15 1.13.48.51 1.02 1 1.5 1.5.48.51.98.94 1.5 1.5 1.48 1.23 1.48 1.23 3.97 2 2.68-.87 4.83-1.8 7.12-3.51 1.57-1.11 1.57-1.11 3.77-.9 1.79 3.24.91 6.56.53 10.17.34 3.51 1.63 6.59 2.94 9.85 4.1 10.84 4.33 21.1 4.42 32.53.16 4.1 2.1 7.24 3.9 10.88.86 2.26.86 2.26.1 4.75q-.72 1.22-1.54 2.49c-1.36 2.53-1.36 2.53-1.3 5.28 1.8 3.92 3.53 6.9 7.12 9.45 2.4.74 4.58.76 7.14.87 4.78.73 6.84 2.9 10.09 6.4 6.72 9.23 10.57 20.27 10.04 31.84.17 2.41.83 3.8 2.18 5.8a33 33 0 0 0 6.88 3.79c10.2 5.16 17.33 16.48 23.53 25.78 3.64 4.75 7.5 7.3 12.97 9.6 18.35 8.07 20.98 22.82 24.54 40.91"/><path fill="#E2CEA5" d="M518.83 313.61a42 42 0 0 1-.93 11.22 49 49 0 0 0-.95 12.75q-.6 3.96-1.42 7.93c-1.76 9.78-2.28 16.67 1.09 26.01 1.24 3.52 1.75 6.31 1.43 10.03.09 1.07.11 2.17.2 3.24a31 31 0 0 1-.91 7.72c-.71 3.38-.71 3.38.44 5.69q.74.75 1.55 1.47 1.58 1.56 3.1 3.22l-.5 1.66-1.94.41c-2.15 1.07-2.15 1.07-2.96 2.82a134 134 0 0 0-1.48 5.73l-2.49-.76q.04-1.7.02-3.5c-.08-4.34-.84-8.39-1.69-12.6-.44-2.27-.44-2.27-.8-5.56-1.48-5.4-4.1-9.94-8.96-12.92-3.1-2.45-4.8-5.24-6.81-8.63-.23-.3-.23-.3-1.17-1.81-.92-1.47-1.81-3.01-2.73-4.47l-2.46.6c-.6 4.78-.7 9.43-.68 14.3.06 20.29.06 20.29-2.98 25.95-2.45 1.3-3.7 1.55-6.39.96q-1.27-.47-2.47-.99-1.16-.4-2.36-.9c-.78-.28-1.53-.65-2.3-.93-.65-.29-1.26-.52-1.95-.78-5.06-2.32-8.78-5.64-12.2-9.87-2.87-3.28-6.06-5.62-9.7-8-.56-.4-1.15-.86-1.7-1.25-1.66-1.14-1.66-1.14-4.57-2.17-2.83-1.14-3.95-1.8-6-3.84-3.44-3.05-4.9-3.04-9.32-2.98-4.17.54-7.32 1.94-11.01 3.9l-1.14 1.93c-1.72 2.52-3.59 3.72-6.2 5.24-2.94 1.92-5.12 3.98-6.27 7.3-.01 1.82-.01 1.82 1.69 3.7q1.93-.28 3.83-.64l2.5.76c.38 3.21.6 6.37.78 9.6.09 1.08.11 2.18.22 3.3a28 28 0 0 1-1.83 9.12c2.21 1.54 3.85 2.13 6.4 2.87.06 3.79-1.27 6.66-3.05 9.97q.08 2.33.39 4.67c-.1.74-.13 1.46-.22 2.2a118 118 0 0 0 3.72 5.68c1.62-.86 1.62-.86 3.5-2.56l.77-2.5c.51-.47.94-.98 1.45-1.46 2.78-4.06 2.83-8.95 2.3-13.75 1.07-2.03 1.07-2.03 2.53-4.13 1.54-2.21 2.65-3.92 3.36-6.52.66-1.89.66-1.89 3.38-3.33.75.5 1.45 1.03 2.24 1.6-.26.55-.47 1.08-.7 1.69-.9 3.95.07 7.34 1.62 11.04 1.1 3.1 1 5.94 1 9.21.28 2.5.6 4.91 1.01 7.4.1.71.26 1.4.36 2.11.57 2 .57 2 1.8 3.5 1.04 1.46 1.04 1.46.86 5.04.09 3.44.8 5.43 2.5 8.35 1.35 2.83 1.35 2.83 1.2 5.42-.83 2.1-.83 2.1-3.25 4.1-.2.93-.43 1.82-.62 2.76-.62 2.76-.62 2.76-3.04 4.75a14.5 14.5 0 0 0-2.49 6.33c-.6 2.27-.6 2.27-2.24 3.9-.6.33-1.27.62-1.87.94-2.78-1.31-2.78-1.31-4.78-3.1-1.94-1.69-1.94-1.69-4.14-1.9-.37.88-.68 1.74-1.01 2.69l-1.32 3.41c-.12.55-.12.55-.96 3.3-1.36 2.81-1.36 2.81-4.05 4.17l-2.48.7c-.26.83-.26.83.56 2.62.78 2.79.38 4.25-.32 7l-.19 3.57c-.42 1.83-.81 3.7-1.23 5.53l-.19 2.4c-.25 2.01-.25 2.01-2.39 4.54-.22 2.2-.22 2.2.94 4.52 1.17 3.76.1 5.44-1.43 8.97.09 1.07.25 2.17.36 3.29-1.32 6.69-1.32 6.69-3.21 8.88l-.92 1.67q1.12 2.54 2.32 5.03c.95 2.84-.18 4.9-1.18 7.6-.1 1.78-.16 3.49-.2 5.25-.38 4.52-1.69 8.49-4.6 11.91-.83-.39-1.72-.75-2.56-1.14-.91-.28-1.77-.6-2.71-.92-.46.45-.89.95-1.34 1.4q.16 3.05.42 6.04c-.13 1.19-.18 2.4-.32 3.59-.06 4.07.88 5.58 2.84 9a29 29 0 0 1 1.65 10.96c-1.6 2.24-1.6 2.24-3.48 3.93-.4 3.97 2.47 7.26 4.36 10.57.38.84.81 1.65 1.2 2.5-.35.66-.72 1.28-1.06 1.95-.89-.37-1.75-.67-2.7-1-3.12-.78-3.12-.78-5.04.31l-1.88.93c-2.95-1.36-2.95-1.36-5.85-3.16q-1.51-.88-3.07-1.84c-1.5-1.78-2.87-3.56-4.26-5.4-.4-.48-.77-.91-1.16-1.4-12.99-16.56-20.72-38.97-24.26-59.37l-1.3-7.17c-2.86-16.1-3.94-31.88-4.4-48.2.01-.5.01-.5-.08-3.16l-.08-2.89c-.17-2.41-.17-2.41-1.07-5.42-.67-.34-1.28-.7-1.95-1.05.06-2.25.06-2.25.42-5.23l.44-3.23q1.17-7.81 2.39-15.54c.2-1.58.45-3.1.7-4.7 4.05-25.4 18.65-48.48 34.99-68.02 3.01-3.63 5.86-7.3 8.74-11.06a334 334 0 0 1 25.68-29.73c.3-.37.3-.37 2.07-2.15 10.48-10.8 24.75-22.84 40.28-24 4.38.12 8.27 1.53 12.4 2.89a39 39 0 0 0 11.45 1.63c.7-.37 1.38-.8 2.09-1.18 3.98-1.14 6.2-.1 10.04 1.2 2.52.83 4.54 1.22 7.14.88 2-1.21 2-1.21 4.05-2.86.46-.31.46-.31 2.96-1.77 2.73-1.94 3.58-2.82 4.83-5.85 1.24-3.02 1.24-3.02 2.6-5.56.92 0 1.8-.05 2.76-.07"/><path fill="#E0CAA0" d="M529.18 419.5c1.21 2.28 1.26 4.2 1.55 6.83l1.12 3.3c.96 3.25.96 3.25.49 6.29-.9 0-1.79.04-2.75.07-.18-.6-.38-1.12-.56-1.72a44 44 0 0 0-3.51-7.26c-.36-.02-.36-.02-2.2-.22-3.06 8.93-3.06 8.93-2.16 12.98 1.73 3.26 1.73 3.26 3.83 4.44 3.21 2.26 3.77 4.75 4.53 8.52q.66 3.83 1.23 7.7c.23 1.34.4 2.71.6 4q.34 2.2.63 4.33.22 1.04.36 2.1c.53 3.76.81 7.44.88 11.23l.7 3.67c1.4 6.84 2.74 14.07 1.93 21.04-.3 3.5.2 5.88 1.11 9.3a54 54 0 0 1 1.37 15c-.15 5.1.13 9.68 1.24 14.66.77 4.32 1.13 8.66 1.46 13.08.05.88.12 1.67.2 2.6.35 5.25.02 8.42-2.61 13.02-1.5 2.96-2.38 6-3.3 9.13-3.16 10.8-3.16 10.8-5.71 13.2l-1.74.93c-.3-.18-.3-.18-1.95-1.05-1.3 4.24.45 8.32 2.22 12.04l.84.26c1.17 1.95 2.35 3.9 3.5 5.93 2.88 4.11 7.38 6.03 12.1 7.43 3.18 1.02 3.18 1.02 4.88 2.9-1.15 3.74-1.4 3.8-4.65 5.53-2.55 1.5-3.52 2.15-5.05 4.78-.44 2.04-.44 2.04-.12 3.96.45.46.96.88 1.4 1.34q.02 1.33.08 2.75c2.56 1.42 4.56.98 7.44.91l1.67.51c1.7 5.7 1.63 9.23-.46 14.86-.5.76-1.03 1.46-1.59 2.24.83 1.16.83 1.16 5.13 7.02l2.17-1.15c-.12-1.54-.27-3.13-.4-4.67.62-.54 1.21-1.13 1.89-1.7 2.78 1.31 2.78 1.31 4.68 2.67 3.5 1.97 6.6 2.06 10.45 1.05q.84-.35 1.71-.84l.51-1.66-1.44-2.71-2.5-.77c-.73-3.08-.11-3.62 1.47-6.27 1.71-2.94 2.13-3.99 2.31-7.57q-.57-1.26-1.08-2.56c-.97-2.61-.97-2.61-.67-4.93.97-1.84.97-1.84 4.23-3.57 2.06.08 2.06.08 3.86.73.58 1.99 1.23 4 1.8 6 .7.26 1.34.55 2.06.86 3 1.19 4.03 2.73 5.94 5.27l1.68 2.37 1.6 2.22c.82 1.16 1.73 2.35 2.56 3.5-1.6 2.25-1.6 2.25-4.02 4.23-3.47 5.4-3.47 5.4-4.46 8.64l-1.85 3.07c.87 1.9.87 1.9 2.56 3.51 2.52.68 2.52.68 4.7.99-.09.74-.13 1.46-.22 2.2-2.46.61-2.46.61-3.83.65.04.46 0 .9.03 1.37.36-.12.36-.12 2.08-.55l2.3-.38c.54.62 1.13 1.2 1.7 1.88l-.77 2.5a135 135 0 0 0-.18 3.57c-2.68 3.73-5.6 6.1-9.38 8.68-1.37 1.22-1.37 1.22-2.13 3.71 1.84 3.47 3.63 4.61 7.3 5.87q1.5.88 3.06 1.84l3.33 1.02c.9 3 .9 3 .14 5.5-.62.54-1.21 1.13-1.89 1.7-.5.75-1.03 1.45-1.59 2.23l1.66.51 2.4-3.36c3.04 1.03 3.04 1.03 6.1 2.33a28 28 0 0 1-.91 7.44q-.15 1.54-.36 3.12c-.67 3.2-1.16 4.37-3.52 6.6a72 72 0 0 1-3.2 1.98c-3.65 2.43-4.74 4.05-5.65 8.37l-.35 2.48c-.46 3.45-1.08 6.35-2.62 9.47-2.02 1.56-3.25 2-5.83 1.99-2.38-.41-2.38-.41-5.31-1.22-7.77-1.5-15.19 1.04-22.58 3.51-13.88 4.4-29.83 5.7-43.45-.15-2.2-1.4-3.5-2.52-5.17-4.62-2.72-3.02-4.52-3.52-8.5-4.05-8.94-1.51-15.48-10.15-20.87-16.89-6.42-8-12.83-14.55-22.39-18.66-3.39-.35-5.3 1.29-8.17 2.96-1.3 1.1-2.5 2.23-3.77 3.39-.95.3-2 .57-3 .9q.45-2.33.98-4.7l1.09-.58c-.36-3.29-.36-3.29-2.1-6.54-2.63-1.18-2.63-1.18-6.1-2.33-11.48-3.92-11.48-3.92-14.33-7.83l-.77-2.24c2.24-3.77 4.67-4.7 8.65-5.99 3.2-.52 6.22-.73 9.52-.68 2.83-.18 3.94-.84 6.07-2.73-.24-.58-.42-1.18-.68-1.8l-.8-2.3-.93-2.14c-.55-1.94-.55-1.94.76-4.72 3.31-1.49 5.8-1.14 9.28-.48 5.08.92 10.2.84 14.69-1.97.16-.22.16-.22 1.23-1.2-.13-2.1-.13-2.1-.64-3.84 4.98-2.02 4.98-2.02 7.25-2.6.22-.12.22-.12 1.47-.65.07-.52.07-.52.47-3.03-2.39-2.14-4.19-3.55-7.26-4.5-.21-.79-.37-1.6-.61-2.45 1.88-1.7 1.88-1.7 3.64-1.8.3.05.3.05 1.95.14 3.03.06 5.37.14 8.08-1.44.92-1.8.92-1.8 1.56-3.61 1.88-1.7 1.88-1.7 3.92-1.67 2.37.41 2.37.41 4.48.96 2.6.43 4.2.2 6.75-.25 5.27-.7 8.07 1.28 12.32 4.31 2.65 1.45 4.82 1.48 7.85 1.54.21.8.37 1.61.61 2.46 2.56 1.28 2.56 1.28 5.28 2.07.62-.54 1.2-1.13 1.88-1.7-.3-.96-.57-2-.9-3 .1-.75.13-1.46.22-2.2 3.67-1.75 7.15-1.1 11-.28.58.31 1.22.6 1.8.91 3.11 1.14 5.78.27 8.93-.36l.5-1.66c-3.62-.93-6.77-1.62-10.48-1.39-1.66-.5-1.66-.5-2.66-2.13-2.13-2.56-4.56-3.08-7.67-4.2-1.52-1.3-1.52-1.3-2.27-2.98.09-1.92.23-3.88.4-5.78-1.96-3.7-3.97-4.85-7.33-7.24l-2.6-4.89 2.34-1.24c.78-.62 1.48-1.27 2.26-1.9-.17-2.41-.17-2.41-.68-5.2-1-8.17-1.31-16.22-1.16-24.45-.01-.27-.01-.27.03-1.9a159 159 0 0 1 3.57-29.95c.88-4.23 1.04-7.73.25-11.97-.34-.38-.34-.38-1.99-2.42.5-.76 1.04-1.46 1.6-2.24-.14-2.1-.14-2.1-.62-4.7q-.26-1.31-.53-2.84-.3-1.51-.57-3.04-.53-3.16-1.13-6.3c-.16-1.09-.35-2.1-.52-3.2-3.97-23.57-5.1-47.55-2.77-71.34q.13-1.51.22-3.12a76 76 0 0 1 2.89-15.52c1.14-4.65.1-7.79-1.41-12.2-.13-.63-.2-1.3-.32-1.92.45-.45.88-.96 1.34-1.4l1.66.5c.55-.15 1.17-.28 1.75-.37 2.66-.37 4.08.47 6.53 1.54.8.06 1.57.07 2.42.1.64.15 1.3.22 1.99.34"/><path fill="#FAF5E9" d="M540.58 238c1.63 3.45.93 6.46.53 10.15.34 3.52 1.62 6.6 2.94 9.86 4.1 10.84 4.33 21.1 4.42 32.53.16 4.1 2.1 7.23 3.9 10.87.86 2.26.86 2.26.1 4.76q-.73 1.22-1.54 2.48c-1.37 2.54-1.37 2.54-1.3 5.29 1.84 3.97 3.53 6.9 7.12 9.45 2.4.73 4.58.76 7.14.86 4.77.73 6.87 2.96 10.09 6.4 6.75 9.3 10.6 20.33 10.09 31.81.19 3.1 1.45 5.08 3.48 7.34.32.46.58.95.92 1.46-1.02 4.24-4.34 7.04-7.7 9.6-3.94 3.2-5.74 5.97-7.05 10.85a29 29 0 0 0 .62 9.28c.35 2.1.34 4.06.34 6.15.03 5.55 2.32 8.93 5.83 13.19 1.82 2.24 1.82 2.24 2.1 3.96 1.08 6.33 5.53 11.96 9.53 16.73.64 1.2 1.24 2.47 1.83 3.7 1.93 3.77 4.44 6.26 7.62 9.1 1.63 1.5 1.63 1.5 3.26 4.04 2.8 3.8 7.03 5.1 11.39 6.62 3.16 1.1 5.5 2.22 7.68 4.9a26 26 0 0 1-1.64 8.03c-2.6 8.2-3.05 16.53-3.03 25.08l-.5 1.66c-2.46.61-2.46.61-3.3.36l-2.7 1.44c-.58 3.64.29 6.45 1.23 9.92a126 126 0 0 1 3.32 18.29c.3 1.86.59 3.72.96 5.61q.38 2.43.78 4.74c1.1 6.65 2.31 13.25 3.9 19.78.36 2.11.4 3.76.21 5.88-.07.67-.16 1.41-.2 2.13q-.24 2.11-.58 4.27c-.67 5.02-.21 8.89 1.1 13.83.7 3.04.72 5.95.69 9.03.08 3.3.16 6.6.47 9.92.17 3.46-.4 6.47-1.08 9.9l-.33 1.99c-1.23 7.12-1.23 7.12-2.94 10.19-3 .9-3 .9-4.92-.1-.3-.18-.3-.18-1.98-1.1l-3.58-.19-6.62-.66c-6.11-.5-9.41.62-14.99 3.1-3.06.8-4.17.27-6.96-1.17-3.49-1.07-4.89-.95-8.4-.34-4.05.62-7.3.4-11.41-.26-1.75 2.46-1.8 3.67-2.03 6.65-.35.66-.72 1.28-1.06 1.95-.79.2-1.6.37-2.46.6-.2-.1-.2-.1-1.12-.79l.35-1.57c.53-3.07.05-5.8-.33-8.88.09-.74.13-1.46.22-2.2l-2.2-1c-2.54-1.36-2.54-1.36-4.02-3.63-.92-4.6.75-8.27 2.68-12.5 1-2.7 1.2-5.09 1.34-7.95.09-1.02.12-2.01.17-3.09l.15-2.86c.93-17.62.93-17.62 2.3-25.8.3-1.9.42-3.77.51-5.7.17-3.09.48-6.04.88-9.1.17-1.76.24-3.6.33-5.4.22-3.25.7-6.15 1.33-9.27a69 69 0 0 0 1.24-10.9c-.36-.29-.75-.5-1.12-.79l-2.54 1.77c-3.05 2.11-5.44 2.47-9.18 2.37-.3-.18-.3-.18-1.95-1.05q-.07-2.87.08-5.75c0-2.22-.36-4.2-.93-6.33-.45-2.4-.75-4.68-1-7.12l1.62-.87c1.7 1.89 1.7 1.89 2.57 3.51.72-.87 1.41-1.65 2.13-2.52-.1-.85-.26-1.67-.36-2.52-.39-3.21.23-3.89 1.78-6.6a45 45 0 0 0 1.2-6.9c-.45-.45-.95-.88-1.4-1.34a50 50 0 0 0-5.19 12.5c-.74-.09-1.46-.12-2.2-.21-3.6-7.15-2.74-17.07-2.83-24.96-.03-4.37-.07-8.38-1.14-12.62-.24-1.75-.44-3.45-.68-5.2a61 61 0 0 0-1.41-5.8c-1.06-5 .35-6.8 2.91-11.02 3.26-1.73 3.26-1.73 6.25-.95l3.41 1.32c6.08 2.26 6.08 2.26 9.1 2.19.84-.66 1.6-1.33 2.43-1.99.22-4.3-.1-8.44-.4-12.67a65 65 0 0 1-.13-9.53c.12-2.92.05-4.76-.9-7.46a16 16 0 0 1-.92-6.2c0-3.13-.85-5.11-2.21-7.94-.18-.46-.18-.46-1.22-2.7-1.98-3.32-4.14-5.94-7.78-7.41-.53-.21-1.03-.5-1.56-.7-.07-2.76-.07-2.76 1.24-5.68 1.02-3.18 1.02-3.18-.14-5.5q-.68-1.3-1.44-2.57a82 82 0 0 1-1.81-5.37c-2-6.25-2-6.25-3.78-9.06q-1.92-.43-3.86-.73c-1.8-1.69-1.8-1.69-3.11-3.22a19 19 0 0 0-1.3 7.51l-.09 2.97-1.63.87-1.66-.51c-.9-3-.9-3-.4-5.08 1.1-5.8-.77-10.87-2.9-16.2-.57-1.72-.57-1.72-.07-3.39l5.43-2.88c2.64-2.24 4.54-4.43 5.58-7.84l-.9-3.28c-.95-3.6-.91-6.55-.48-10.19.23-2.7.11-5.28-.26-7.94-.25-.21-.25-.21-1.4-1.34-.73.87-1.42 1.66-2.14 2.53s-1.42 1.66-2.14 2.53c-.36-.3-.36-.3-2.24-1.6-.02-2.14-.02-2.14.38-4.79.2-.94.34-1.85.5-2.84a92 92 0 0 1 1.74-7.61c1.33-4.96 1.63-8.18-.85-12.85-3-.14-5.14-.12-7.77 1.49-.4.42-.83.79-1.23 1.21-.62.54-1.21 1.13-1.89 1.7-.66-.34-1.28-.71-1.95-1.05a53 53 0 0 1 5.4-14.71c1.1-2.53 1.98-4.8 2.43-7.49.76-2.9 2-5.02 3.44-7.54 5.43-9.43 5.43-9.43 5.78-14.14l-1.73-3.25a14 14 0 0 1 4.04-5.5c.46-.45.97-.93 1.45-1.32 1.46-1.06 1.46-1.06 4.21-1.13"/><path fill="#C3A273" d="M594.26 679.38c.77 3.14.36 5.38-.33 8.53-1.28 1.66-1.28 1.66-2.68 2.82-.38.34-.38.34-2.43 1.99l-2.78 2.1c-2.61 2.16-2.61 2.16-3.37 4.65 1.84 3.47 3.63 4.61 7.3 5.87q1.5.88 3.06 1.84l3.33 1.02c.9 3 .9 3 .14 5.5-.62.54-1.21 1.13-1.89 1.7-.29.36-.29.36-1.59 2.23l1.66.51 2.4-3.36c3.04 1.03 3.04 1.03 6.1 2.33a28 28 0 0 1-.91 7.44q-.15 1.54-.36 3.12c-.61 3.18-1.16 4.37-3.52 6.6-2.76 1.75-2.76 1.75-5.43 2.89-1.95-1.05-1.95-1.05-3.68-4.3-.19-1.93-.19-1.93-.1-3.85l.06-1.99c.12-1.87.12-1.87.6-4.9-.2-.11-.2-.11-1.13-.8a18 18 0 0 1-.42-6.04c-.85-.67-1.66-1.42-2.53-2.14-1-1.76-1.99-3.6-2.89-5.43-.42.65-.87 1.24-1.3 1.88-.53.56-1.04 1.18-1.63 1.77-2.5-.76-2.5-.76-4.74-2.35.85.66 1.66 1.41 2.53 2.13.34.38.34.38 1.99 2.43l-.51 1.66c-2.53 1.14-3.3 1.27-6.04.43-1.93 4.09-1.93 4.09-.91 7.44.84.67 1.66 1.42 2.53 2.14a40 40 0 0 1 3.1 3.22l-.5 1.67-2.78 1.06c-2.94 1.28-2.94 1.28-4.8 4.35-1.87.79-3.8 1.6-5.7 2.34-1.76 1.28-1.76 1.28-2.69 2.82.29 1.45.57 2.9.94 4.38-1.6 2.24-1.6 2.24-4.6 3.14-.42.64-.82 1.34-1.3 2-1.5 2.41-2.44 3.26-5.14 4.2l-1.66-.5c-4.2-.42-7.58 2.64-11.1 4.65-4.27 2.06-7.57 2.14-12.2 1.4-2.96-.44-2.96-.44-5.76-.07-2.41.3-2.41.3-5.48-1.54-.62-.5-1.15-.99-1.77-1.5-1.88-1.43-1.88-1.43-3.58-2.13-1.91-.86-1.91-.86-4.39-3.03-2.44-1.97-3.86-2.54-6.74-3.38-.6-2.46-.6-2.46.44-4.4.38-.35.38-.35 2.43-2-1.65-1.13-3.34-1.56-5.28-2.06l-1.63.86c-.36-.29-.36-.29-2.24-1.59-.04-.47-.04-.47-.07-2.75l-1.66-.5c-.43.36-.89.81-1.37 1.21-1.6 1.06-1.6 1.06-3.5.75-2.5-1.8-2.63-3.76-3.22-6.71-.21-.8-.37-1.62-.61-2.46q.3-1.96.72-3.87a27 27 0 0 0-7.73-1.46c-1.41-1.34-1.41-1.34-2.85-4.05l-1.67-.5c-1.48-2.14-2.03-3.45-1.96-6.06.38-2.16.38-2.16 1.4-5.48 3.26-1.74 3.26-1.74 6.3-1.26 2.57-.4 2.57-.4 4.91-1.22l1.02-3.33c-.63-.78-1.33-1.59-1.99-2.43a279 279 0 0 0-6 1.8c-2.16-.66-2.16-.66-3.62-1.55.84-2.75 1.67-3.68 3.96-5.52 2.56-2.13 3.44-3.36 4.27-6.51-.3-.96-.57-2-.9-3l1.34-1.42c-.37-.29-.37-.29-2.24-1.59.34-.67.7-1.28 1.05-1.95.66.07 1.4.16 2.12.2 2.29.24 2.29.24 4.71-1.75 1.02-3.32 1.02-3.32.12-6.32 1.6-2.24 1.6-2.24 4.6-3.14 2.5.76 2.5.76 3.87 2.18.51.43.93.83 1.44 1.26l2.46-.61c1.08.46 2.14 1.01 3.22 1.48.53.2.53.2 3.17 1.38.62-.54 1.21-1.13 1.89-1.7-.04-.46-.04-.46-.13-2.72q.01-1.34-.01-2.77c.78-.63 1.59-1.34 2.42-1.99l1.67.51c.2.65.5 1.33.7 1.99.77 2.1.77 2.1 2.73 3.15.7-.24 1.44-.42 2.2-.69 3.54-.7 5.52.41 8.82 1.79 1.92-.33 1.92-.33 3.84-1.7 3.3-2.3 3.3-2.3 5.68-2.67 3.57.82 5.54 1.52 8.35 3.92.06 2.61.06 2.61-.16 4.95l1.67.51a25 25 0 0 1 2.1 3.69c.22.3.22.3 1.12 1.98.82 1.93.82 1.93.89 4.68.53.62 1.13 1.2 1.7 1.88a35 35 0 0 1 3.2 7.34c.84.67 1.66 1.42 2.53 2.14 1.3 2.3 2.56 4.56 3.75 6.92l1.04 1.95c.8 1.52 1.59 3.13 2.43 4.7l1.62-.87 1.63-.86c.17-1.9.32-3.86.4-5.79l.26-.83c-.62-.78-1.33-1.59-1.98-2.42a88 88 0 0 1-2.26-3.33l-1.12-1.7c-.92-1.74-.92-1.74-1.28-5.03-.67-.34-1.28-.71-1.95-1.05a42 42 0 0 1-2.38-7.1c-.7-.8-1.33-1.58-2.06-2.44-1.9-2.4-1.9-2.4-1.69-4.6.8-.22 1.62-.38 2.46-.62 1.88 1.3 3.75 2.6 5.6 3.99 2.2.22 2.2.22 4.66-.8 2.88-1.13 4.17-1.46 7.13-.6 5.1 3.97 5.1 3.97 6.25 7.82l2.5.76a39 39 0 0 0 6.74-5.12c2.45-1.93 3.8-2.16 6.82-2.1z"/><path fill="#C9AA7B" d="M594.26 679.38c.77 3.14.36 5.38-.33 8.53-1.28 1.66-1.28 1.66-2.68 2.82-.38.34-.38.34-2.43 1.99l-2.78 2.1c-2.61 2.16-2.61 2.16-3.37 4.65 1.84 3.47 3.63 4.61 7.3 5.87q1.5.88 3.06 1.84l3.33 1.02c.9 3 .9 3 .14 5.5l-1.89 1.7c-.29.36-.29.36-1.59 2.23l1.66.51 2.4-3.36c3.04 1.03 3.04 1.03 6.1 2.33a28 28 0 0 1-.91 7.44q-.15 1.54-.36 3.12c-.61 3.18-1.16 4.37-3.52 6.6-2.76 1.75-2.76 1.75-5.43 2.89-1.95-1.05-1.95-1.05-3.68-4.3-.19-1.93-.19-1.93-.1-3.85l.06-1.99c.12-1.87.12-1.87.6-4.9-.2-.11-.2-.11-1.13-.8a18 18 0 0 1-.42-6.04c-.85-.67-1.66-1.42-2.53-2.14-1-1.76-1.99-3.6-2.89-5.43-.42.65-.87 1.24-1.3 1.88-.53.56-1.04 1.18-1.63 1.77-2.5-.76-2.5-.76-4.74-2.35.85.66 1.66 1.41 2.53 2.13.63.78 1.34 1.6 1.99 2.43l-.51 1.66c-2.53 1.14-3.3 1.27-6.04.43-1.93 4.09-1.93 4.09-.91 7.44.84.67 1.66 1.42 2.53 2.14a40 40 0 0 1 3.1 3.22l-.5 1.67-2.78 1.06c-2.94 1.28-2.94 1.28-4.8 4.35-1.87.79-3.8 1.6-5.7 2.34-1.76 1.28-1.76 1.28-2.69 2.82.29 1.45.57 2.9.94 4.38-1.6 2.24-1.6 2.24-4.6 3.14-.42.64-.82 1.34-1.3 2-1.5 2.41-2.44 3.26-5.14 4.2l-1.66-.5c-4.2-.42-7.58 2.64-11.1 4.65-4.27 2.06-7.57 2.14-12.2 1.4-2.96-.44-2.96-.44-5.76-.07-2.41.3-2.41.3-5.48-1.54-.62-.5-1.15-.99-1.77-1.5-1.88-1.43-1.88-1.43-3.58-2.13-1.91-.86-1.91-.86-4.39-3.03-2.44-1.97-3.86-2.54-6.74-3.38-.6-2.46-.6-2.46.44-4.4.38-.35.38-.35 2.43-2-1.65-1.13-3.34-1.56-5.28-2.06l-1.63.86c-.36-.29-.36-.29-2.24-1.59q-.01-1.33-.07-2.75c-.53-.62-1.13-1.2-1.7-1.88.13-1.74.13-1.74.63-3.67q.23-.95.42-1.97c.23-.47.5-1.03.7-1.55 3.06-.8 3.69-.01 6.36 1.49 1.92-.33 1.92-.33 3.85-2.19 2.38-1.82 2.38-1.82 4.6-1.68 4.4.03 7.82-2.07 11.7-3.93 3.3-1.12 5.37-1.04 8.8-.63 3.3-.71 3.3-.71 6-1.8l.76-2.5 2.71-1.43c2.5.76 2.5.76 5.02 2.9 1.38-.04 1.38-.04 4.64-1.77a39 39 0 0 1 4.73 2.35q1.48.26 3.04.48c1.81 3.42 1.9 3.72 1.08 7.15-.62 2.63-.84 3.65-.2 6.3 2.9.62 2.9.62 6.08.95q1.47.26 3.03.47c.78-.62 1.6-1.33 2.43-1.98.18-3.58.18-3.58.03-6.36.02-2.72.02-2.72 1.03-6.04-2.24-1.6-2.24-1.6-3.9-2.1-1.32-2.1-1.32-2.1-2.3-4.35.33-.67.7-1.28 1.04-1.95.36.02.36.02 2.2.22.12-1.1.2-2.12.31-3.22.36-3.4.36-3.4.61-4.23-.34-.37-.34-.37-1.98-2.42a88 88 0 0 1-2.26-3.33l-1.12-1.7c-.92-1.74-.92-1.74-1.28-5.03-.67-.34-1.28-.71-1.95-1.05a42 42 0 0 1-2.38-7.1c-.7-.8-1.33-1.58-2.06-2.44-1.9-2.4-1.9-2.4-1.69-4.6.8-.22 1.62-.38 2.46-.62 1.88 1.3 3.75 2.6 5.6 3.99 2.2.22 2.2.22 4.66-.8 2.88-1.13 4.17-1.46 7.13-.6 5.1 3.97 5.1 3.97 6.25 7.82l2.5.76a39 39 0 0 0 6.74-5.12c2.45-1.93 3.8-2.16 6.82-2.1z"/><path fill="#CEB081" d="M588.83 714.99c-.07.52-.07.52-.48 3.04a24 24 0 0 0 2.06 5.17l-.66 6.62c.07 2.88.6 4.13 2.09 6.54.36.3.75.5 1.12.8-.42.64-.88 1.23-1.36 1.9-1.78 3.6-2.28 6.72-2.78 10.6-.58 3.38-1.2 6.14-3.98 8.25-3.43 1.13-5.98.4-9.41-.57-7.77-1.5-15.19 1.04-22.58 3.51-13.88 4.4-29.83 5.7-43.45-.15-2.2-1.4-3.5-2.52-5.17-4.62-2.72-3.02-4.52-3.52-8.5-4.05-8.94-1.51-15.48-10.15-20.87-16.89-6.42-8-12.83-14.55-22.39-18.66-3.39-.35-5.3 1.29-8.17 2.96-1.3 1.1-2.5 2.23-3.77 3.39-.95.3-2 .57-3 .9q.45-2.33.98-4.7l1.09-.58c-.36-3.29-.36-3.29-2.1-6.54-2.63-1.18-2.63-1.18-6.1-2.33-11.48-3.92-11.48-3.92-14.33-7.83l-.77-2.24c2.24-3.77 4.67-4.7 8.65-5.99 3.2-.52 6.22-.73 9.52-.68 2.83-.18 3.94-.84 6.07-2.73-.24-.58-.42-1.18-.68-1.8l-.8-2.3c-.12-.35-.12-.35-.93-2.14-.55-1.94-.55-1.94.76-4.72 5.33-2.28 10.74-.35 15.98 1.25 2.64-.01 4.28-.2 6.67-1.46 1.8-.95 1.8-.95 4.83-.48q1.75.11 3.58.18c1.3.22 2.6.43 3.87.73.07 1.84.06 3.66.13 5.5q2.33.45 4.7.98c.09 3.3-.57 4.69-2.28 7.48-1.6 1.34-3.24 2.7-4.85 3.97-.1.75-.13 1.47-.22 2.21 2.49.76 2.49.76 5.52-.22.98-.25 1.94-.54 2.97-.82 2.24 1.6 2.24 1.6 2.86 4.06-.24.47-.24.47-1.3 2.78-5.55 1.48-5.55 1.48-7.97.75l-3.25 1.73c-1.73 5.79-1.73 5.79-.3 8.86 1.12 1.84 1.12 1.84 2.78 2.35.26.63.6 1.28.87 1.9.4.63.75 1.28 1.15 1.9q1.75.11 3.58.19 2.33.45 4.7.98c-.19 3.58-.19 3.58-.7 5.24q.55 1.79 1.2 3.55l.45 1.9c.73 1.64.73 1.64 3.51 2.95 1.95-1.18 1.95-1.18 3.52-2.57.75.5 1.45 1.04 2.24 1.6.08 1.07.24 2.16.35 3.29 2.2.22 2.2.22 3.84-.65 3.32 1.02 3.32 1.02 5.02 2.9-.3.23-.3.23-1.73 1.2-1.78 1.36-1.78 1.36-2.29 3.03 1.7 1.88 1.7 1.88 3.55 2.35 3.08 1.08 4.91 2.96 7.36 5.07 1.59.76 3.15 1.6 4.73 2.36l1.87 1.93c3 2.24 5.04 1.36 8.65.83q3.44.56 6.9 1.2c4.84-.2 8.8-3.35 12.93-5.68 2.9-1.34 3.73-1.5 6.72-.58 2.7-.95 3.61-1.72 5.1-4.17 1.6-2.47 2.68-2.68 5.43-3.52.51-1.67.51-1.67-.07-3.8-.35-2.24-.35-2.24.57-3.78 1.75-1.28 1.75-1.28 4.7-2.43 2.77-1.2 2.77-1.2 4.62-4.26 2.96-1.37 2.96-1.37 5.71-2.35-.32-1.91-.32-1.91-2.85-4.05s-2.53-2.14-3.43-5.14c.67-1.89.67-1.89 1.56-3.61l.51-1.67q.86.28 1.8.5l2.07.23c.78-.62 1.59-1.33 2.43-1.98-.48-.51-.99-.94-1.47-1.45-1.64-1.78-1.64-1.78-2.8-3.95 1.67.51 1.67.51 4.74 2.36q1.7-1.95 3.48-3.94l1.44 2.85c1.73 3.12 1.73 3.12 4.26 5.26"/><path fill="#AA855A" d="M568 717.71c.07 2.75.07 2.75-.33 4.5-.43 2.73-.14 5.36.1 8.16-.77 2.5-.77 2.5-2.26 3.35-2.77.43-4.9-.18-7.58-.9q-1.49-.26-3.04-.48c-.77-3.14-.05-5.2.67-8.3.17-1.9.17-1.9-1.56-5.15-1.85-.48-1.85-.48-3.87-.73q-1.5-.88-3.07-1.85c-1.92.96-1.92.96-3.8 2.02-2.49-.76-2.49-.76-5.02-2.9l-.83-.25-2.71 1.44-.77 2.5c-3.1 1.23-5.34 1.86-8.73 1.5-3.69-.12-5.78.78-9.13 2.35-3.99 1.92-6.45 2.53-10.85 2.36-1.84 1.4-3.6 2.82-5.4 4.26l-3.32-1.01c-2.09-4.19-3.49-9.7-2-14.25q.87-1.51 1.84-3.07c.02-.36.02-.36.22-2.2.35-3.54 2.25-5.73 4.75-8.1a42 42 0 0 1 5.68-3.72c.34-.67.7-1.28 1.05-1.95 4.9-2.96 4.9-2.96 7.63-2.67 2.4-.85 2.4-.85 5.12-2.02.9-.41 1.82-.76 2.78-1.2.73-.46 1.43-.97 2.16-1.43.41-2.24.41-2.24.44-4.4 2.69-2.41 4.29-2.15 7.92-2.13 6.38 1 10.76 2.42 15.03 7.32a29 29 0 0 1 3.21 7.34c.84.67 1.66 1.42 2.53 2.14q1.2 2.09 2.3 4.2.59 1.26 1.25 2.48l2.58 5.24 1.3 2.44 1.16 2.31c1.22 1.78 1.22 1.78 4.55 2.8"/><path fill="#E2CEA7" d="M588.83 714.99q-.26 1.48-.48 3.04a24 24 0 0 0 2.06 5.17l-.66 6.62c.07 2.88.6 4.13 2.09 6.54.36.3.75.5 1.12.8-.42.64-.88 1.23-1.36 1.9-1.78 3.6-2.28 6.72-2.78 10.6-.58 3.38-1.2 6.14-3.98 8.25-3.43 1.13-5.98.4-9.41-.57-7.77-1.5-15.19 1.04-22.58 3.51-13.88 4.4-29.83 5.7-43.45-.15-2.2-1.4-3.5-2.52-5.17-4.62-2.72-3.02-4.52-3.52-8.5-4.05-5.35-.92-8.17-3.6-12.08-7.3q-1.27-1.18-2.57-2.46c-2.17-2.25-2.17-2.25-3.61-4.97l6.61.66 1.63-.86c.47-.04.47-.04 2.75-.07.38-.34.38-.34 2.43-1.99.36.3.36.3 2.24 1.6.08 1.07.24 2.16.35 3.29 2.2.22 2.2.22 3.84-.65 3.32 1.02 3.32 1.02 5.02 2.9-.57.37-1.14.74-1.73 1.2-1.78 1.36-1.78 1.36-2.29 3.03 1.7 1.88 1.7 1.88 3.55 2.35 3.08 1.08 4.91 2.96 7.36 5.07 1.59.76 3.15 1.6 4.73 2.36l1.87 1.93c3 2.24 5.04 1.36 8.65.83q3.44.56 6.9 1.2c4.84-.2 8.8-3.35 12.93-5.68 2.9-1.34 3.73-1.5 6.72-.58 2.7-.95 3.61-1.72 5.1-4.17 1.6-2.47 2.68-2.68 5.43-3.52.51-1.67.51-1.67-.07-3.8-.35-2.24-.35-2.24.57-3.78 1.75-1.28 1.75-1.28 4.7-2.43 2.77-1.2 2.77-1.2 4.62-4.26 2.96-1.37 2.96-1.37 5.71-2.35-.32-1.91-.32-1.91-2.85-4.05s-2.53-2.14-3.43-5.14c.67-1.89.67-1.89 1.56-3.61l.51-1.67q.86.28 1.8.5l2.07.23c.38-.34.38-.34 2.43-1.98-.48-.51-.99-.94-1.47-1.45-1.64-1.78-1.64-1.78-2.8-3.95 1.67.51 1.67.51 4.74 2.36q1.7-1.95 3.48-3.94l1.44 2.85c1.73 3.12 1.73 3.12 4.26 5.26"/><path fill="#E6D4AF" d="M641.3 680.13c-1.01 3.32-1.01 3.32-2.1 3.9l.58 1.08-1.42 1.39c-4.67 4.7-9.1 9.36-12.75 14.92-4.63 6.08-10.37 9.55-17.42 12.4-2.04 1.01-2.04 1.01-3.43 2.59-.46.45-.89.82-1.29 1.24-3.24-1-3.24-1-6.1-2.32l-2.94 3.64c-.67-.34-1.28-.7-1.95-1.05 1.15-2.28 2.04-3.87 3.98-5.6.22-2.2.22-2.2-1.76-4.63-.33.04-.33.04-1.92.33a249 249 0 0 1-5.31-3.45l-2.5-.76c-1.78-2.18-1.78-2.18-3.14-4.6 1.33-2.86 1.98-3.48 4.47-5.22a28 28 0 0 0 7.6-7.45c.32-2.26.43-4.41.35-6.66-.02-1.87-.02-1.87.77-3 3.62-.66 5.83-.17 9.11 1.43.5-.76 1.04-1.46 1.6-2.24 1.74.26 3.5.43 5.24.7l2.65-.79c3.36-.88 5.98-.53 9.43-.07 2.75-.07 2.75-.07 5.2-.82 2.47-.47 2.47-.47 5.54 1.38 2.54 1.5 4.69 2.8 7.51 3.66"/><path fill="#E9DAB8" d="M515.32 656.6c.33 3.38.1 4.13-1.75 7.2-.95.3-1.99.57-3 .9q-.8.44-1.63.87c-.49.12-.49.12-3 .9q.09 1.31.1 2.66c.04 2.83.04 2.83-.47 4.5-2.84.67-3.54.28-6.07-.95l-1.67-.5-1.66-.52c-.9 0-1.78.05-2.75.07q-1.44-1.32-2.81-2.68c-2.2-.22-2.2-.22-3.9.68-.15.22-.15.22-1.28 1.38q.29 1.93.65 3.83c-.68 2.38-.68 2.38-1.81 4.45-3 .9-3 .9-6.59.71l1.16 2.17.86 1.63-1.62.87-.51 1.66-4.16-1.27c.12-.7.21-1.44.33-2.13.01-.77.05-1.48.11-2.28-2.22-2.1-4.5-2.06-7.5-2.07-.6.04-1.24.03-1.9.1-.46.04-.9 0-1.37.04-.8.35-1.53.67-2.29 1.07-3.19 1.07-5.39.99-8.67.58.8-1.12.8-1.12 2.55-1.5q2.24-.35 4.38-.66a9.3 9.3 0 0 0 5.04-2.82c-.13-2.09-.13-2.09-.64-3.83 4.98-2.02 4.98-2.02 7.25-2.6.46-.18.95-.44 1.47-.65q.25-1.47.47-3.03c-2.39-2.14-4.19-3.55-7.26-4.5-.21-.79-.37-1.6-.61-2.45 1.88-1.7 1.88-1.7 3.64-1.8q.96.03 1.95.14c3.03.06 5.37.14 8.08-1.44.92-1.8.92-1.8 1.56-3.61 1.88-1.7 1.88-1.7 3.92-1.67 2.37.41 2.37.41 4.48.96 2.6.43 4.2.2 6.75-.25 5.27-.7 8.07 1.28 12.32 4.31 2.65 1.45 4.82 1.48 7.85 1.54"/><path fill="#ECDFC0" d="M588.83 714.99q-.26 1.48-.48 3.04a24 24 0 0 0 2.06 5.17l-.66 6.62c.07 2.88.6 4.13 2.09 6.54.36.3.75.5 1.12.8-.42.64-.88 1.23-1.36 1.9-1.78 3.6-2.28 6.72-2.78 10.6-.58 3.38-1.2 6.14-3.98 8.25-3.49 1.16-6.06.37-9.55-.56a27 27 0 0 0-9.33-.26c-.53-1.53-.53-1.53-.65-3.84.68-1.33 1.4-2.75 2.16-4.07a71 71 0 0 0 5.39-13.17c3-.9 3-.9 5.78.4.76.51 1.46 1.05 2.24 1.6l1.09-.57c.24 2.16.46 4.41.71 6.58 1.63-.87 1.63-.87 2.3-2.48l.61-2c.15-.63.39-1.24.59-1.9.71-3.24.15-5.1-1.38-7.97-2.6-1.34-5.1-2.52-8.03-2-5.06-4.28-5.06-4.28-5.96-7.28.67-1.89.67-1.89 1.56-3.61l.51-1.67q.86.28 1.8.5l2.07.23c.38-.34.38-.34 2.43-1.98-.26-.22-.26-.22-1.47-1.45-1.64-1.78-1.64-1.78-2.8-3.95 1.67.51 1.67.51 4.74 2.36q1.7-1.95 3.48-3.94l1.44 2.85c1.73 3.12 1.73 3.12 4.26 5.26"/><path fill="#A9845A" d="M484.12 684.34c.35 3.29.35 3.29.42 6.04 1.99 2.42 1.99 2.42 2.82 2.68l1.73 3.25-.25.84c.54.75 1.16 1.53 1.73 2.34 2.28 4.15.86 7.9-.3 12.28-.73 2.4-.73 2.4-1.78 4.36.4 1.67.77 3.28 1.22 4.92.02.68-.05 1.35-.03 2.03.13 2.09.13 2.09 1.51 4.42 1.22 2.55 1.22 2.55.7 5.62-1.83 4.03-1.83 4.03-4.23 5.03-1.9-.31-1.9-.31-3.61-1.56-.95-2.7-.95-2.7-1.51-5.46l-.61-2.46q.3-1.96.72-3.87a27 27 0 0 0-7.73-1.46c-1.41-1.34-1.41-1.34-2.85-4.05l-1.67-.5c-1.48-2.14-2.03-3.45-1.96-6.06.38-2.16.38-2.16 1.4-5.48 3.26-1.74 3.26-1.74 6.3-1.26 2.57-.4 2.57-.4 4.91-1.22l1.02-3.33c-.34-.38-.34-.38-1.99-2.43a279 279 0 0 0-6 1.8c-2.16-.66-2.16-.66-3.62-1.55.84-2.75 1.67-3.68 3.96-5.52 2.56-2.13 3.44-3.36 4.27-6.51-.3-.96-.57-2-.9-3 1.63-.87 1.63-.87 4.09-1.48.75.5 1.45 1.03 2.24 1.59m34.2-138.63c2.32 5.03 1.47 10.36.11 15.54-4.19 17.12-4.3 36.95-1.94 54.36.68 5.2.68 5.2.43 6.04-2.8 1.69-2.8 1.69-5.97 3.17l-3.33-1.02c-5.37-11.55-3.68-25.12-1.76-37.35.07-.66.19-1.35.25-2.02.55-4.46 1.5-8.72 2.6-13.07q.7-2.55 1.3-5.14c.89-3.68 1.98-7.26 3.08-10.83.63-2.08 1.1-4.07 1.52-6.17q.37-1.27.7-2.6c2.17-1.16 2.17-1.16 3-.9"/></svg>